<?xml version="1.0" encoding="UTF-8" standalone="no"?>
<!DOCTYPE svg PUBLIC "-//W3C//DTD SVG 1.1//EN" "http://www.w3.org/Graphics/SVG/1.1/DTD/svg11.dtd">
<svg width="100%" height="100%" viewBox="0 0 2048 1536" version="1.1" xmlns="http://www.w3.org/2000/svg" xmlns:xlink="http://www.w3.org/1999/xlink" xml:space="preserve" xmlns:serif="http://www.serif.com/" style="fill-rule:evenodd;clip-rule:evenodd;stroke-linecap:round;stroke-linejoin:round;stroke-miterlimit:1.5;">
    <g transform="matrix(1.17601,0,0,1.12982,-155.351,92.154)">
        <path d="M2111.61,82.595C2077.99,90.422 2024.25,128.634 1985.07,144.766C1868.28,192.854 1747.66,236.441 1625.19,268.39C1404.85,325.869 1184.38,386.775 967.231,456.573C893.773,480.185 823.323,511.869 750.202,536.242C530.728,609.4 308.509,701.875 123.839,843.929C-94.482,1011.87 -225.493,1180.59 -242.913,1459.3C-247.618,1534.58 -259.134,1617.51 -231.924,1690.07C-219.378,1723.53 -194.268,1755.1 -176.98,1786.22C-167.301,1803.64 -144.887,1816.77 -128.904,1827.43C-54.341,1877.14 21.783,1877.49 85.378,1806.82C101.968,1788.39 124.603,1773.24 127.96,1746.39C134.151,1696.86 55.004,1677.55 24.94,1647.49C-6.953,1615.59 -42.547,1569.97 -64.344,1530.73C-166.109,1347.55 130.471,1124.33 247.463,1030.74C371.961,931.141 520.88,863.811 662.291,793.106C930.007,659.248 1211.43,551.662 1502.94,481.298C1600.56,457.735 1697.33,429.842 1795.51,408.497C2004.84,362.992 2227.38,306.299 2383.41,150.26C2481.98,51.694 2391.73,-83.265 2251.55,-59.901C2149.21,-42.845 2135.06,40.956 2077.1,111.799" style="fill:rgb(234,62,62);stroke:black;stroke-width:0.87px;"/>
    </g>
</svg>
